<svg width="72" height="24" viewBox="0 0 72 24" fill="none" xmlns="http://www.w3.org/2000/svg">
  <path d="M29.2595 7.32898L25.2383 16.9283H22.5308L20.5715 9.05644C20.4472 8.62504 20.3349 8.45429 19.9772 8.28354C19.3739 7.99209 18.309 7.71593 17.3683 7.54518H17.3057V7.32898H21.865C22.4937 7.32898 23.0594 7.7474 23.184 8.45429L24.3238 14.2911L26.8943 7.32898H29.2595ZM40.9165 13.242C40.9165 10.6426 37.7768 10.5426 37.7768 9.31939C37.7768 8.87119 38.2178 8.42089 39.1585 8.30759C39.6246 8.25004 40.6414 8.21374 41.7812 8.70513L42.2846 6.75194C41.6813 6.53573 40.8654 6.33482 39.8485 6.33482C37.4192 6.33482 35.6097 7.6434 35.6097 9.60586C35.6097 10.998 36.9374 11.7688 37.9543 12.2519C38.9959 12.735 39.3037 13.0604 39.3037 13.5137C39.3037 14.1922 38.5253 14.4955 37.8095 14.4955C36.6752 14.4955 35.9592 14.2435 35.3807 14.0272L34.8649 16.0464C35.4438 16.2626 36.5405 16.4576 37.6741 16.4576C40.2947 16.4695 40.9165 15.0751 40.9165 13.242ZM48.3952 16.9289H50.7354L48.4391 6.54617H46.3657C45.8623 6.54617 45.4172 6.8833 45.2302 7.36172L41.1465 16.9289H43.5243L44.1151 15.1347H47.9231L48.3952 16.9289ZM44.8685 13.1739L46.1713 9.22168L46.9121 13.1739H44.8685ZM34.276 6.54617L32.3918 16.9283H30.1452L32.0293 6.54617H34.276Z" fill="#172B85"/>
  <path d="M52.8245 13.2176C52.8245 15.65 54.296 16.9283 56.887 16.9283H58.7088L59.1559 14.648H57.64C56.637 14.648 56.1398 14.078 56.1398 13.1613V9.76277H58.834L59.281 7.54392H56.1398V5.7L53.7998 6.27578L52.8245 11.0147V13.2176Z" fill="#FFB612"/>
</svg>